<?xml version="1.0" encoding="utf-8"?>
<!-- Generator: Adobe Illustrator 24.0.3, SVG Export Plug-In . SVG Version: 6.00 Build 0)  -->
<svg version="1.1" id="Livello_1" xmlns="http://www.w3.org/2000/svg" xmlns:xlink="http://www.w3.org/1999/xlink" x="0px" y="0px"
	 viewBox="0 0 1031 159" style="enable-background:new 0 0 1031 159;" xml:space="preserve">
<style type="text/css">
	.st0{fill:#F2F2F2;}
	.st1{fill:#86A315;}
	.st2{font-family:'Montserrat-Bold';}
	.st3{font-size:22.0871px;}
	.st4{fill:#666666;}
	.st5{font-family:'Montserrat-Medium';}
	.st6{font-size:16.6338px;}
	.st7{fill:none;stroke:#B3B3B3;stroke-miterlimit:10;}
</style>
<path class="st0" d="M998.4,134H33.8c-6.6,0-12-5.4-12-12V82c0-6.6,5.4-12,12-12h964.6c6.6,0,12,5.4,12,12v40
	C1010.4,128.6,1005,134,998.4,134z"/>
<g>
	<rect x="34" y="53.1" class="st1" width="963.1" height="2.7"/>
</g>
<text transform="matrix(1 0 0 1 72.9106 41.4785)" class="st1 st2 st3">10 MESI</text>
<text transform="matrix(1 0 0 1 78.5005 107.8779)" class="st4 st5 st6">68 - 77 cm</text>
<line class="st7" x1="203.5" y1="134" x2="203.5" y2="70"/>
<text transform="matrix(1 0 0 1 225.9106 41.4785)" class="st1 st2 st3">1 ANNO</text>
<text transform="matrix(1 0 0 1 231.5005 107.8779)" class="st4 st5 st6">70 - 80 cm</text>
<line class="st7" x1="356.5" y1="134" x2="356.5" y2="70"/>
<text transform="matrix(1 0 0 1 376.9106 41.4785)" class="st1 st2 st3">2 ANNI</text>
<text transform="matrix(1 0 0 1 382.5005 107.8779)" class="st4 st5 st6">81 - 92 cm</text>
<line class="st7" x1="507.5" y1="134" x2="507.5" y2="70"/>
<text transform="matrix(1 0 0 1 542.9106 41.4785)" class="st1 st2 st3">3 ANNI</text>
<text transform="matrix(1 0 0 1 548.5005 107.8779)" class="st4 st5 st6">89 - 103 cm</text>
<line class="st7" x1="673.5" y1="134" x2="673.5" y2="70"/>
<text transform="matrix(1 0 0 1 707.9106 41.4785)" class="st1 st2 st3">4 ANNI</text>
<text transform="matrix(1 0 0 1 713.5005 107.8779)" class="st4 st5 st6">95 - 111 cm</text>
<line class="st7" x1="838.5" y1="134" x2="838.5" y2="70"/>
<text transform="matrix(1 0 0 1 873.9106 41.4785)" class="st1 st2 st3">5 ANNI</text>
<text transform="matrix(1 0 0 1 879.5005 107.8779)" class="st4 st5 st6">101 - 119 cm</text>
</svg>
